<?xml version="1.0" encoding="UTF-8" standalone="no"?>
<!-- Created with Inkscape (http://www.inkscape.org/) -->

<svg
   xmlns:dc="http://purl.org/dc/elements/1.1/"
   xmlns:cc="http://creativecommons.org/ns#"
   xmlns:rdf="http://www.w3.org/1999/02/22-rdf-syntax-ns#"
   xmlns:svg="http://www.w3.org/2000/svg"
   xmlns="http://www.w3.org/2000/svg"
   xmlns:sodipodi="http://sodipodi.sourceforge.net/DTD/sodipodi-0.dtd"
   xmlns:inkscape="http://www.inkscape.org/namespaces/inkscape"
   width="1200"
   height="1200"
   viewBox="0 0 317.49999 317.50001"
   version="1.1"
   id="svg8"
   inkscape:version="0.92.4 (f8dce91, 2019-08-02)"
   sodipodi:docname="og-image.svg"
   inkscape:export-filename="/home/marxjmoura/Desktop/pdfrest.png"
   inkscape:export-xdpi="96"
   inkscape:export-ydpi="96">
  <defs
     id="defs2" />
  <sodipodi:namedview
     id="base"
     pagecolor="#ffffff"
     bordercolor="#666666"
     borderopacity="1.0"
     inkscape:pageopacity="1"
     inkscape:pageshadow="2"
     inkscape:zoom="0.57866745"
     inkscape:cx="679.03473"
     inkscape:cy="530.10704"
     inkscape:document-units="px"
     inkscape:current-layer="layer1"
     showgrid="false"
     inkscape:window-width="1850"
     inkscape:window-height="1016"
     inkscape:window-x="70"
     inkscape:window-y="27"
     inkscape:window-maximized="1"
     units="px"
     fit-margin-top="0"
     fit-margin-left="0"
     fit-margin-right="0"
     fit-margin-bottom="0" />
  <metadata
     id="metadata5">
    <rdf:RDF>
      <cc:Work
         rdf:about="">
        <dc:format>image/svg+xml</dc:format>
        <dc:type
           rdf:resource="http://purl.org/dc/dcmitype/StillImage" />
        <dc:title></dc:title>
      </cc:Work>
    </rdf:RDF>
  </metadata>
  <g
     inkscape:label="Layer 1"
     inkscape:groupmode="layer"
     id="layer1"
     transform="translate(-70.528256,163.69672)">
    <g
       id="g4302">
      <g
         transform="matrix(2.0318995,0,0,2.0318995,146.91289,-247.23932)"
         id="g4746">
        <g
           style="fill:#ff3547;fill-opacity:1"
           transform="matrix(0.26458333,0,0,0.26458333,21.794364,94.997558)"
           id="g4733">
          <g
             style="fill:#ff3547;fill-opacity:1"
             id="g4731">
            <polygon
               id="polygon4723"
               style="fill:#ff3547;fill-opacity:1"
               points="84,125.95 83.95,126 84,126 " />
            <polygon
               id="polygon4725"
               style="fill:#ff3547;fill-opacity:1"
               points="114,77 114,76.95 113.95,77 " />
            <path
               id="path4727"
               style="fill:#ff3547;fill-opacity:1"
               d="M 111.071,44.243 71.757,4.929 C 69.869,3.041 67.357,2 64.687,2 H 24 C 18.486,2 14,6.486 14,12 v 104 c 0,5.514 4.486,10 10,10 h 59.95 l -4,-4 H 24 c -3.309,0 -6,-2.691 -6,-6 V 12 c 0,-3.309 2.691,-6 6,-6 h 40.687 c 1.603,0 3.109,0.624 4.242,1.757 l 39.314,39.314 c 1.116,1.117 1.757,2.663 1.757,4.242 V 72.95 l 4,4 V 51.313 c 0,-2.67 -1.04,-5.181 -2.929,-7.07 z"
               inkscape:connector-curvature="0" />
            <polyline
               id="polyline4729"
               style="fill:#ff3547;fill-opacity:1"
               points="113.95,77 114,76.95 110,72.95     " />
          </g>
        </g>
        <g
           id="g4586"
           transform="matrix(0.26458333,0,0,0.26458333,21.794364,94.997558)"
           style="fill:#ff3547;fill-opacity:1">
          <path
             inkscape:connector-curvature="0"
             d="m 95.21,80.32 c -0.07,-0.51 -0.48,-1.15 -0.92,-1.58 -1.26,-1.24 -4.03,-1.89 -8.25,-1.95 -2.86,-0.03 -6.3,0.22 -9.92,0.73 -1.62,-0.93 -3.29,-1.95 -4.6,-3.18 -3.53,-3.29 -6.47,-7.86 -8.31,-12.89 0.12,-0.47 0.22,-0.88 0.32,-1.3 0,0 1.98,-11.28 1.46,-15.1 -0.07,-0.52 -0.12,-0.67 -0.26,-1.08 l -0.17,-0.44 c -0.54,-1.25 -1.6,-2.57 -3.26,-2.5 L 60.32,41 H 60.3 c -1.86,0 -3.36,0.95 -3.76,2.36 -1.2,4.44 0.04,11.09 2.29,19.69 l -0.58,1.4 c -1.61,3.94 -3.63,7.9 -5.41,11.39 l -0.23,0.45 c -1.88,3.67 -3.58,6.79 -5.13,9.43 l -1.59,0.84 c -0.12,0.06 -2.85,1.51 -3.49,1.89 -5.43,3.25 -9.03,6.93 -9.63,9.85 -0.19,0.94 -0.05,2.13 0.92,2.68 l 1.54,0.78 c 0.67,0.33 1.38,0.5 2.1,0.5 3.87,0 8.36,-4.82 14.55,-15.62 7.14,-2.32 15.28,-4.26 22.41,-5.32 5.43,3.05 12.11,5.18 16.33,5.18 0.75,0 1.4,-0.07 1.92,-0.21 0.81,-0.22 1.49,-0.68 1.91,-1.3 0.82,-1.23 0.98,-2.93 0.76,-4.67 z M 36.49,99.33 c 0.7,-1.93 3.5,-5.75 7.63,-9.13 0.26,-0.21 0.9,-0.81 1.48,-1.37 -4.32,6.89 -7.21,9.63 -9.11,10.5 z M 60.95,43 c 1.24,0 1.95,3.13 2.01,6.07 0.06,2.94 -0.63,5 -1.48,6.53 -0.71,-2.26 -1.05,-5.82 -1.05,-8.15 0,0 -0.05,-4.45 0.52,-4.45 z m -7.3,40.14 c 0.87,-1.55 1.77,-3.19 2.69,-4.92 2.25,-4.25 3.67,-7.57 4.72,-10.3 2.1,3.82 4.72,7.07 7.79,9.67 0.39,0.32 0.8,0.65 1.22,0.98 -6.25,1.23 -11.66,2.74 -16.42,4.57 z m 39.43,-0.35 c -0.38,0.23 -1.47,0.37 -2.17,0.37 -2.26,0 -5.07,-1.03 -9,-2.72 1.51,-0.11 2.9,-0.17 4.14,-0.17 2.27,0 2.94,-0.01 5.17,0.56 2.22,0.57 2.25,1.72 1.86,1.96 z"
             style="fill:#ff3547;fill-opacity:1"
             id="path4584" />
        </g>
        <path
           id="path4710"
           d="m 54.273307,123.4104 1.139855,0.62984 c 0.130182,0.0721 0.190601,0.22067 0.14601,0.35808 -0.296091,0.9126 -0.801612,1.73707 -1.462776,2.42183 a 0.32139391,0.30766459 0 0 1 -0.396714,0.0578 l -1.139,-0.62975 a 5.1241414,4.9052482 0 0 1 -1.625131,0.89949 v 1.25928 a 0.32123342,0.30751097 0 0 1 -0.250809,0.30004 c -0.934974,0.201 -1.939142,0.21139 -2.921298,2e-4 -0.146833,-0.0315 -0.251503,-0.1561 -0.251503,-0.30017 v -1.25933 a 5.1235528,4.9046848 0 0 1 -1.625132,-0.89949 l -1.139001,0.62975 a 0.32139391,0.30766459 0 0 1 -0.396714,-0.0578 c -0.661136,-0.68479 -1.166685,-1.50926 -1.462776,-2.42185 -0.04459,-0.13745 0.01583,-0.28613 0.14601,-0.35809 l 1.139885,-0.62984 a 5.1750414,4.9539739 0 0 1 0,-1.79742 l -1.139858,-0.62985 c -0.130181,-0.072 -0.190601,-0.22066 -0.146009,-0.35807 0.296091,-0.91262 0.801612,-1.73707 1.462774,-2.42185 a 0.32139391,0.30766459 0 0 1 0.396715,-0.0577 l 1.139002,0.62973 a 5.1241414,4.9052482 0 0 1 1.62513,-0.89947 v -1.25932 a 0.32123342,0.30751097 0 0 1 0.250808,-0.30004 c 0.934973,-0.201 1.939143,-0.21139 2.921299,-1.7e-4 0.146849,0.0315 0.251503,0.15608 0.251503,0.30015 v 1.25933 a 5.1235528,4.9046848 0 0 1 1.625131,0.89951 l 1.139002,-0.62975 a 0.32139391,0.30766459 0 0 1 0.396713,0.0578 c 0.661137,0.68476 1.166685,1.50925 1.462777,2.42184 0.04459,0.13745 -0.01583,0.28613 -0.14601,0.35809 l -1.139883,0.62984 a 5.1751752,4.9541019 0 0 1 0,1.79744 z m -2.909771,-0.89873 c 0,-1.12947 -0.959903,-2.04836 -2.139774,-2.04836 -1.179871,0 -2.139773,0.91889 -2.139773,2.04836 0,1.12947 0.959902,2.04836 2.139773,2.04836 1.179871,0 2.139774,-0.91889 2.139774,-2.04836 z"
           inkscape:connector-curvature="0"
           style="fill:#ff3547;fill-opacity:1;stroke-width:0.02616964" />
      </g>
      <text
         id="text3457"
         y="42.680737"
         x="178.18175"
         style="font-style:normal;font-variant:normal;font-weight:normal;font-stretch:normal;font-size:6.3499999px;line-height:0;font-family:'Maven Pro';-inkscape-font-specification:'Maven Pro';letter-spacing:0px;word-spacing:0px;fill:#000000;fill-opacity:1;stroke:none;stroke-width:0.26458332"
         xml:space="preserve"><tspan
           style="font-style:normal;font-variant:normal;font-weight:900;font-stretch:normal;font-size:22.57777786px;font-family:'Maven Pro';-inkscape-font-specification:'Maven Pro Heavy';fill:#2c3e50;fill-opacity:1;stroke-width:0.26458332"
           y="42.680737"
           x="178.18175"
           id="tspan3455"
           sodipodi:role="line">PDF Rest</tspan></text>
    </g>
  </g>
</svg>
